<?xml version="1.0" standalone="no"?>
<!DOCTYPE svg PUBLIC "-//W3C//DTD SVG 20010904//EN"
 "http://www.w3.org/TR/2001/REC-SVG-20010904/DTD/svg10.dtd">
<svg version="1.0" xmlns="http://www.w3.org/2000/svg"
 width="640.000000pt" height="640.000000pt" viewBox="0 0 640.000000 640.000000"
 preserveAspectRatio="xMidYMid meet">
<metadata>
Created by potrace 1.16, written by Peter Selinger 2001-2019
</metadata>
<g transform="translate(0.000000,640.000000) scale(0.100000,-0.100000)"
fill="#ffffff" stroke="none">
<path d="M2900 5074 c-193 -23 -435 -112 -598 -218 -155 -101 -312 -254 -412
-401 -93 -137 -182 -341 -216 -492 l-18 -81 -151 -5 c-124 -4 -165 -9 -239
-31 -601 -182 -936 -813 -749 -1411 59 -188 154 -339 297 -472 267 -249 653
-339 884 -206 23 14 42 27 42 30 0 3 -26 44 -59 93 -32 48 -67 106 -77 129
l-18 41 -50 -7 c-269 -41 -546 135 -665 421 -34 81 -61 218 -61 305 0 245 129
498 317 623 178 119 368 154 587 108 106 -22 141 -19 195 19 50 36 71 81 82
178 38 339 193 612 459 807 117 87 291 160 440 187 94 17 306 17 385 0 174
-37 322 -102 451 -200 236 -177 372 -409 424 -725 11 -65 25 -126 32 -135 54
-72 109 -107 182 -117 33 -5 69 1 148 25 56 17 132 35 168 41 359 56 710 -125
865 -445 55 -113 74 -184 82 -307 21 -332 -164 -649 -450 -769 -47 -19 -62
-32 -79 -64 -39 -76 -82 -130 -181 -232 -56 -57 -97 -106 -94 -110 14 -13 193
-6 272 12 350 78 627 298 773 613 213 462 114 997 -250 1347 -159 154 -302
233 -538 297 -103 27 -393 36 -495 15 -74 -16 -85 -15 -85 8 0 27 -71 226
-111 313 -63 138 -161 275 -279 392 -209 209 -436 333 -733 401 -71 17 -131
22 -267 24 -96 2 -191 1 -210 -1z"/>
<path d="M2414 3430 c-29 -11 -74 -67 -76 -93 -5 -76 19 -124 76 -151 31 -14
127 -16 963 -16 864 0 930 1 963 18 85 43 98 171 22 227 -27 20 -44 20 -977
22 -522 1 -959 -2 -971 -7z"/>
<path d="M2290 3114 c-94 -18 -217 -75 -301 -140 -62 -48 -153 -161 -193 -241
-118 -236 -84 -567 78 -758 l34 -40 22 20 c52 46 133 174 141 221 2 11 -12 53
-31 94 -63 136 -51 280 34 406 40 59 87 99 166 140 51 27 63 29 170 29 111 0
118 -1 185 -34 89 -44 163 -119 206 -208 29 -60 34 -80 37 -168 3 -83 0 -111
-18 -164 -78 -233 -302 -349 -537 -280 -39 12 -78 19 -86 16 -20 -7 -137 -166
-137 -185 0 -24 56 -59 142 -89 104 -37 254 -43 365 -15 139 35 225 85 329
187 77 77 97 104 136 185 80 163 99 333 58 496 -61 237 -221 415 -452 500 -62
22 -92 27 -198 29 -69 2 -136 1 -150 -1z"/>
<path d="M4200 3105 c-147 -40 -297 -144 -390 -270 -300 -406 -88 -993 403
-1117 117 -29 269 -22 387 18 216 73 385 257 439 481 40 165 36 231 -16 273
-24 19 -40 20 -238 20 -203 0 -214 -1 -240 -22 -29 -23 -55 -74 -55 -109 0
-36 32 -90 64 -110 25 -15 51 -19 124 -19 92 0 93 0 87 -22 -25 -82 -111 -175
-205 -221 -62 -31 -70 -32 -185 -32 -110 0 -124 2 -176 28 -124 60 -197 142
-239 268 -18 53 -21 81 -18 164 3 87 8 109 35 168 42 89 121 168 210 210 64
30 75 32 178 32 103 0 114 -2 179 -32 37 -18 78 -33 91 -33 27 0 102 73 122
119 34 79 -18 133 -187 193 -75 27 -290 35 -370 13z"/>
<path d="M3362 3089 c-64 -42 -62 -17 -62 -684 0 -655 0 -653 54 -688 60 -40
135 -29 181 25 l25 30 -2 635 -3 635 -39 34 c-48 41 -102 46 -154 13z"/>
</g>
</svg>
