<?xml version="1.0" standalone="no"?>
<!DOCTYPE svg PUBLIC "-//W3C//DTD SVG 20010904//EN"
 "http://www.w3.org/TR/2001/REC-SVG-20010904/DTD/svg10.dtd">
<svg version="1.0" xmlns="http://www.w3.org/2000/svg"
 width="640.000000pt" height="640.000000pt" viewBox="0 0 640.000000 640.000000"
 preserveAspectRatio="xMidYMid meet">
<metadata>
Created by potrace 1.16, written by Peter Selinger 2001-2019
</metadata>
<g transform="translate(0.000000,640.000000) scale(0.100000,-0.100000)"
fill="#ffffff" stroke="none">
<path d="M0 3200 l0 -3200 3200 0 3200 0 0 3200 0 3200 -3200 0 -3200 0 0
-3200z m3377 1851 c133 -30 233 -66 352 -124 281 -137 532 -392 660 -669 40
-87 111 -286 111 -313 0 -23 11 -24 85 -8 102 21 392 12 495 -15 236 -64 379
-143 538 -297 364 -350 463 -885 250 -1347 -146 -315 -423 -535 -773 -613 -79
-18 -258 -25 -272 -12 -3 4 38 53 94 110 99 102 142 156 181 232 17 32 32 45
79 64 286 120 471 437 450 769 -8 123 -27 194 -82 307 -155 320 -506 501 -865
445 -36 -6 -112 -24 -168 -41 -162 -49 -241 -27 -330 92 -7 9 -21 70 -32 135
-52 316 -188 548 -424 725 -129 98 -277 163 -451 200 -79 17 -291 17 -385 0
-149 -27 -323 -100 -440 -187 -266 -195 -421 -468 -459 -807 -11 -97 -32 -142
-82 -178 -54 -38 -89 -41 -195 -19 -219 46 -409 11 -587 -108 -188 -125 -317
-378 -317 -623 0 -87 27 -224 61 -305 82 -197 251 -354 440 -409 66 -18 152
-23 225 -12 l50 7 18 -41 c10 -23 45 -81 77 -129 33 -49 59 -90 59 -93 0 -10
-86 -55 -140 -72 -76 -26 -219 -24 -330 3 -412 101 -715 434 -791 872 -15 90
-15 268 1 365 68 420 374 766 786 891 74 22 115 27 239 31 l151 5 18 81 c22
97 69 224 126 338 193 383 564 665 990 753 111 23 129 24 320 21 136 -2 196
-7 267 -24z m985 -1636 c76 -56 63 -184 -22 -227 -33 -17 -99 -18 -963 -18
-836 0 -932 2 -963 16 -57 27 -81 75 -76 151 2 26 47 82 76 93 12 5 449 8 971
7 933 -2 950 -2 977 -22z m-1724 -329 c231 -85 391 -263 452 -500 41 -163 22
-333 -58 -496 -39 -81 -59 -108 -136 -185 -104 -102 -190 -152 -329 -187 -111
-28 -261 -22 -365 15 -86 30 -142 65 -142 89 0 19 117 178 137 185 8 3 47 -4
86 -16 235 -69 459 47 537 280 18 53 21 81 18 164 -3 88 -8 108 -37 168 -43
89 -117 164 -206 208 -67 33 -74 34 -185 34 -107 0 -119 -2 -170 -29 -79 -41
-126 -81 -166 -140 -85 -126 -97 -270 -34 -406 19 -41 33 -83 31 -94 -8 -47
-89 -175 -141 -221 l-22 -20 -34 40 c-162 191 -196 522 -78 758 40 80 131 193
193 241 84 65 207 122 301 140 14 2 81 3 150 1 106 -2 136 -7 198 -29z m1932
6 c169 -60 221 -114 187 -193 -20 -46 -95 -119 -122 -119 -13 0 -54 15 -91 33
-65 30 -76 32 -179 32 -103 0 -114 -2 -178 -32 -89 -42 -168 -121 -210 -210
-27 -59 -32 -81 -35 -168 -3 -83 0 -111 18 -164 42 -126 115 -208 239 -268 52
-26 66 -28 176 -28 115 0 123 1 185 32 94 46 180 139 205 221 6 22 5 22 -87
22 -73 0 -99 4 -124 19 -32 20 -64 74 -64 110 0 35 26 86 55 109 26 21 37 22
240 22 198 0 214 -1 238 -20 52 -42 56 -108 16 -273 -54 -224 -223 -408 -439
-481 -118 -40 -270 -47 -387 -18 -491 124 -703 711 -403 1117 93 126 243 230
390 270 80 22 295 14 370 -13z m-1054 -16 l39 -34 3 -635 2 -635 -25 -30 c-46
-54 -121 -65 -181 -25 -54 35 -54 33 -54 688 0 667 -2 642 62 684 52 33 106
28 154 -13z"/>
</g>
</svg>
